<svg width="150.000000" height="44.000000" viewBox="0 0 150 44" fill="none" xmlns="http://www.w3.org/2000/svg" xmlns:xlink="http://www.w3.org/1999/xlink">
	<desc>
			Created with Pixso.
	</desc>
	<defs/>
	<rect rx="5.000000" width="150.000000" height="44.000000" fill="#222222" fill-opacity="1.000000"/>
	<rect x="0.500000" y="0.500000" rx="5.000000" width="149.000000" height="43.000000" stroke="#A6A6A6" stroke-opacity="1.000000" stroke-width="1.000000"/>
	<path d="M93 33.79Q94.24 34.16 95.63 34.16Q97.08 34.16 98.21 33.68Q99.32 33.21 99.93 32.37Q99.94 32.36 99.95 32.35Q100.18 32.04 100.32 31.69Q100.57 31.09 100.57 30.38Q100.57 29.47 100.16 28.83Q100.1 28.75 100.04 28.67Q99.51 27.98 98.51 27.54Q97.52 27.1 95.91 26.74Q94.4 26.4 93.77 26Q93.45 25.8 93.29 25.51Q93.14 25.23 93.14 24.87Q93.14 24.42 93.33 24.06Q93.51 23.73 93.85 23.49Q94.56 23 95.79 23Q96.8 23 97.49 23.26Q98.18 23.52 98.92 24.06Q99.17 24.2 99.32 24.26Q99.48 24.31 99.66 24.31Q99.75 24.31 99.84 24.28Q100.03 24.22 100.19 24.03Q100.27 23.92 100.33 23.8Q100.41 23.61 100.41 23.37Q100.41 23.09 100.31 22.9Q100.21 22.71 99.98 22.51Q99.78 22.34 99.57 22.2Q98.04 21.14 95.79 21.14Q94.38 21.14 93.26 21.64Q92.22 22.1 91.6 22.88Q91.55 22.95 91.5 23.02Q91.24 23.38 91.09 23.78Q90.87 24.36 90.87 25.01Q90.87 26.09 91.38 26.8Q91.88 27.5 92.87 27.95Q93.86 28.4 95.45 28.74Q96.98 29.08 97.63 29.45Q98.03 29.67 98.18 30.01Q98.29 30.23 98.29 30.5Q98.29 30.99 98.07 31.35Q97.9 31.64 97.59 31.85Q96.88 32.3 95.57 32.3Q94.55 32.3 93.7 32.05Q92.85 31.8 92.08 31.24Q91.67 30.99 91.34 30.99Q91.25 30.99 91.17 31.01Q90.97 31.07 90.81 31.27Q90.73 31.37 90.68 31.49Q90.59 31.69 90.59 31.93Q90.59 32.26 90.73 32.5Q90.83 32.67 91 32.79Q91.77 33.42 93 33.79ZM62.97 33.08Q62.97 32.84 62.87 32.61L57.88 21.94Q57.79 21.73 57.63 21.58Q57.52 21.47 57.38 21.39Q57.21 21.29 57.03 21.24Q56.86 21.2 56.67 21.2Q56.51 21.2 56.35 21.23Q56.15 21.28 55.96 21.39Q55.82 21.47 55.71 21.58Q55.56 21.73 55.47 21.94L50.5 32.61Q50.39 32.84 50.39 33.08Q50.39 33.23 50.44 33.38Q50.52 33.6 50.73 33.78Q50.96 33.97 51.22 34.03Q51.35 34.07 51.49 34.07Q51.7 34.07 51.88 33.99Q51.97 33.96 52.05 33.92L52.05 33.92Q52.3 33.76 52.44 33.44L53.52 31.02L59.86 31.02L60.94 33.44Q61.08 33.76 61.33 33.92L61.33 33.92Q61.49 34.01 61.66 34.04Q61.77 34.07 61.87 34.07Q62.09 34.07 62.28 34Q62.47 33.92 62.64 33.78Q62.84 33.61 62.92 33.39Q62.97 33.24 62.97 33.08ZM107.71 32.74Q107.5 32.46 106.97 32.43L106.48 32.39Q105.92 32.35 105.62 32.05Q105.26 31.7 105.26 30.97L105.26 26.88L106.79 26.88Q107.27 26.88 107.53 26.67Q107.6 26.62 107.64 26.55Q107.79 26.35 107.79 26.04Q107.79 25.72 107.64 25.52Q107.59 25.46 107.53 25.41Q107.27 25.19 106.79 25.19L105.26 25.19L105.26 23.54Q105.26 23.19 105.1 22.95Q105.04 22.85 104.95 22.77Q104.89 22.71 104.82 22.66Q104.54 22.48 104.14 22.48Q103.69 22.48 103.4 22.69Q103.35 22.73 103.31 22.77Q103.23 22.84 103.17 22.94Q103.01 23.18 103.01 23.54L103.01 25.19L102.11 25.19Q101.62 25.19 101.36 25.41Q101.3 25.46 101.25 25.51Q101.1 25.71 101.1 26.04Q101.1 26.36 101.25 26.56Q101.3 26.62 101.36 26.67Q101.62 26.88 102.11 26.88L103.01 26.88L103.01 30.81Q103.01 32.32 103.76 33.13Q104.52 33.94 106.03 34.05L106.51 34.08Q107.16 34.12 107.51 33.9Q107.68 33.79 107.77 33.64Q107.86 33.47 107.86 33.24Q107.86 32.93 107.71 32.74ZM59.07 29.23L54.31 29.23L56.69 23.88L59.07 29.23ZM71.05 25.26Q70.38 24.98 69.58 24.98Q68.67 24.98 67.94 25.35Q67.91 25.36 67.88 25.38Q67.47 25.6 67.17 25.92Q66.92 26.19 66.73 26.52L66.73 26.08Q66.73 25.72 66.57 25.47Q66.51 25.38 66.43 25.3Q66.37 25.25 66.31 25.21Q66.03 25.01 65.62 25.01Q65.2 25.01 64.93 25.21Q64.87 25.25 64.81 25.3Q64.75 25.37 64.7 25.44Q64.52 25.7 64.52 26.08L64.52 36.28Q64.52 36.58 64.65 36.81Q64.72 36.94 64.84 37.04Q64.91 37.1 64.98 37.15Q65.26 37.33 65.65 37.33Q66.1 37.33 66.39 37.11Q66.43 37.08 66.46 37.05Q66.55 36.97 66.62 36.88Q66.77 36.65 66.77 36.32L66.77 32.65Q66.92 32.91 67.12 33.14Q67.45 33.5 67.9 33.74Q67.94 33.77 67.98 33.79Q68.69 34.14 69.58 34.14Q70.51 34.14 71.26 33.78Q71.44 33.69 71.61 33.58Q71.82 33.45 72 33.3Q72.61 32.79 72.99 32Q73.48 30.97 73.48 29.6Q73.48 28.23 72.99 27.18Q72.6 26.35 71.96 25.81Q71.79 25.67 71.6 25.55Q71.34 25.38 71.05 25.26ZM81.87 25.26Q81.19 24.98 80.4 24.98Q79.48 24.98 78.76 25.35Q78.73 25.36 78.7 25.38Q78.29 25.6 77.99 25.92Q77.73 26.19 77.55 26.52L77.55 26.08Q77.55 25.72 77.39 25.47Q77.33 25.38 77.25 25.3Q77.19 25.25 77.13 25.21Q76.85 25.01 76.44 25.01Q76.02 25.01 75.74 25.21Q75.69 25.25 75.63 25.3Q75.57 25.37 75.51 25.44Q75.34 25.7 75.34 26.08L75.34 36.28Q75.34 36.58 75.47 36.81Q75.54 36.94 75.65 37.04Q75.72 37.1 75.8 37.15Q76.08 37.33 76.47 37.33Q76.92 37.33 77.21 37.11Q77.25 37.08 77.28 37.05Q77.37 36.97 77.44 36.88Q77.59 36.65 77.59 36.32L77.59 32.65Q77.74 32.91 77.94 33.14Q78.26 33.5 78.72 33.74Q78.76 33.77 78.8 33.79Q79.51 34.14 80.4 34.14Q81.32 34.14 82.08 33.78Q82.26 33.69 82.43 33.58Q82.63 33.45 82.82 33.3Q83.43 32.79 83.81 32Q84.3 30.97 84.3 29.6Q84.3 28.23 83.81 27.18Q83.42 26.35 82.78 25.81Q82.61 25.67 82.42 25.55Q82.16 25.38 81.87 25.26ZM110.68 33.58Q111.7 34.14 113.05 34.14Q114.4 34.14 115.42 33.58Q115.89 33.32 116.26 32.96Q116.69 32.54 116.98 31.98Q117.53 30.94 117.53 29.55Q117.53 28.16 116.98 27.13Q116.69 26.58 116.27 26.17Q115.9 25.8 115.42 25.54Q114.4 24.98 113.05 24.98Q111.7 24.98 110.68 25.54Q110.23 25.79 109.86 26.13Q109.42 26.56 109.11 27.13Q108.55 28.16 108.55 29.55Q108.55 30.94 109.11 31.98Q109.42 32.57 109.88 33Q110.24 33.34 110.68 33.58ZM133.35 31.65Q133.22 31.58 133.06 31.58Q132.81 31.58 132.27 31.87Q131.71 32.12 131.27 32.27Q130.83 32.41 130.25 32.41Q129.16 32.41 128.57 31.87Q128.55 31.85 128.53 31.83Q127.94 31.24 127.83 30L133.14 30Q133.44 30 133.6 29.85Q133.82 29.66 133.82 29.23Q133.82 27.93 133.33 26.98Q133.02 26.36 132.54 25.92Q132.28 25.68 131.97 25.5Q131.09 24.98 129.89 24.98Q128.91 24.98 128.08 25.34Q127.87 25.44 127.67 25.55Q127.29 25.78 126.98 26.07Q126.48 26.53 126.15 27.17Q125.62 28.22 125.62 29.57Q125.62 31.3 126.44 32.44Q126.63 32.69 126.85 32.92Q127.07 33.13 127.32 33.31Q128.47 34.14 130.22 34.14Q130.92 34.14 131.7 33.93Q132.47 33.73 133.08 33.38Q133.61 33.09 133.72 32.67Q133.75 32.57 133.75 32.45Q133.75 32.05 133.56 31.82Q133.47 31.71 133.35 31.65ZM125 25.18Q124.73 24.98 124.3 25.01L124.05 25.03Q123.54 25.06 123.09 25.24Q122.81 25.35 122.54 25.52Q122.34 25.65 122.17 25.81Q121.77 26.19 121.53 26.74L121.53 26.02Q121.53 25.63 121.34 25.39Q121.3 25.33 121.24 25.28Q121.19 25.23 121.14 25.2Q120.88 25.01 120.48 25.01Q120.15 25.01 119.89 25.15Q119.79 25.21 119.7 25.29Q119.63 25.35 119.57 25.42Q119.38 25.67 119.38 26.06L119.38 33.02Q119.38 33.44 119.59 33.7Q119.64 33.77 119.7 33.83Q119.77 33.89 119.85 33.94Q120.13 34.1 120.5 34.1Q120.88 34.1 121.16 33.94Q121.24 33.89 121.31 33.83Q121.38 33.76 121.44 33.69Q121.63 33.43 121.63 33.02L121.63 29.24Q121.63 28.48 121.97 27.93Q122.05 27.82 122.13 27.72Q122.16 27.68 122.19 27.64Q122.69 27.09 123.69 26.99L124.23 26.94Q124.84 26.87 125.07 26.63Q125.31 26.4 125.31 25.91Q125.31 25.51 125.11 25.28Q125.08 25.24 125.04 25.21Q125.02 25.19 125 25.18ZM128.81 26.86Q129.29 26.56 129.95 26.56Q130.63 26.56 131.08 26.88Q131.23 26.98 131.35 27.13Q131.86 27.69 131.89 28.79L127.83 28.79Q127.94 27.71 128.48 27.14Q128.64 26.98 128.81 26.86ZM114.35 32.01Q113.83 32.39 113.03 32.39Q112.26 32.39 111.75 32.03Q111.54 31.88 111.38 31.67Q110.8 30.95 110.8 29.55Q110.8 28.16 111.39 27.43Q111.57 27.21 111.8 27.05Q112.31 26.7 113.05 26.7Q113.79 26.7 114.3 27.05Q114.52 27.21 114.7 27.43Q115.28 28.16 115.28 29.55Q115.28 30.95 114.7 31.67Q114.55 31.87 114.35 32.01ZM70.2 32.07Q69.7 32.39 68.98 32.39Q68.25 32.39 67.74 32.05Q67.5 31.89 67.32 31.66Q66.73 30.92 66.73 29.57Q66.73 28.2 67.32 27.46Q67.51 27.22 67.75 27.06Q68.25 26.72 68.98 26.72Q69.66 26.72 70.14 27.02Q70.42 27.2 70.64 27.48Q71.23 28.23 71.23 29.6Q71.23 30.94 70.64 31.67Q70.45 31.91 70.2 32.07ZM81.02 32.07Q80.51 32.39 79.8 32.39Q79.06 32.39 78.56 32.05Q78.32 31.89 78.14 31.66Q77.55 30.92 77.55 29.57Q77.55 28.2 78.14 27.46Q78.33 27.22 78.57 27.06Q79.07 26.72 79.8 26.72Q80.47 26.72 80.96 27.02Q81.24 27.2 81.46 27.48Q82.05 28.23 82.05 29.6Q82.05 30.94 81.46 31.67Q81.26 31.91 81.02 32.07Z" fill="#FFFFFF" fill-opacity="1.000000" fill-rule="evenodd"/>
	<path d="M78.53 15.96Q78.68 16.06 78.88 16.06Q79.1 16.06 79.25 15.96Q79.29 15.94 79.33 15.9Q79.38 15.87 79.41 15.82Q79.51 15.68 79.51 15.46L79.51 9.49Q79.51 9.26 79.4 9.12Q79.37 9.08 79.33 9.05Q79.3 9.02 79.26 8.99Q79.1 8.9 78.88 8.9Q78.67 8.9 78.52 8.99Q78.48 9.02 78.44 9.05Q78.41 9.08 78.38 9.11Q78.26 9.25 78.26 9.49L78.26 15.46Q78.26 15.69 78.38 15.83Q78.4 15.87 78.44 15.9Q78.48 15.94 78.53 15.96ZM96.41 8.99Q96.25 8.9 96.03 8.9Q95.8 8.9 95.64 9.01Q95.62 9.03 95.59 9.05Q95.53 9.1 95.5 9.17Q95.43 9.29 95.43 9.45L95.43 11.83Q95.33 11.65 95.19 11.5Q95.02 11.33 94.79 11.21Q94.39 10.99 93.85 10.99Q93.34 10.99 92.92 11.19Q92.82 11.23 92.72 11.3Q92.63 11.36 92.54 11.43Q92.18 11.72 91.96 12.18Q91.69 12.75 91.69 13.5Q91.69 14.26 91.96 14.85Q92.18 15.33 92.55 15.63Q92.64 15.7 92.73 15.76Q92.88 15.85 93.03 15.92Q93.41 16.08 93.85 16.08Q94.35 16.08 94.75 15.87Q94.78 15.86 94.8 15.85Q95.04 15.71 95.21 15.52Q95.34 15.38 95.44 15.2L95.44 15.46Q95.44 15.65 95.52 15.79Q95.56 15.84 95.6 15.89Q95.63 15.91 95.67 15.94Q95.82 16.04 96.06 16.04Q96.28 16.04 96.44 15.94Q96.47 15.91 96.51 15.89Q96.56 15.84 96.59 15.78Q96.68 15.65 96.68 15.46L96.68 9.47Q96.68 9.32 96.61 9.2Q96.57 9.12 96.5 9.06Q96.46 9.02 96.41 8.99ZM122.68 11.34Q122.26 10.99 121.54 10.99Q121.01 10.99 120.59 11.19Q120.39 11.29 120.23 11.43Q120.05 11.59 119.92 11.79L119.92 9.45Q119.92 9.28 119.84 9.15Q119.81 9.09 119.75 9.05Q119.74 9.03 119.71 9.01Q119.55 8.9 119.3 8.9Q119.09 8.9 118.93 8.99Q118.89 9.02 118.85 9.06Q118.79 9.11 118.75 9.19Q118.67 9.31 118.67 9.47L118.67 15.46Q118.67 15.69 118.78 15.83Q118.81 15.87 118.84 15.9Q118.86 15.91 118.88 15.93Q119.04 16.06 119.3 16.06Q119.55 16.06 119.71 15.93Q119.73 15.92 119.75 15.9Q119.79 15.86 119.82 15.82Q119.92 15.67 119.92 15.46L119.92 13.22Q119.92 12.75 120.15 12.44Q120.19 12.37 120.25 12.32Q120.34 12.22 120.45 12.15Q120.73 11.97 121.12 11.97Q121.54 11.97 121.76 12.19Q121.78 12.2 121.79 12.22Q122 12.46 122 12.99L122 15.46Q122 15.68 122.11 15.82Q122.14 15.86 122.17 15.9Q122.19 15.92 122.22 15.93Q122.38 16.06 122.63 16.06Q122.89 16.06 123.05 15.93Q123.07 15.91 123.09 15.9Q123.12 15.87 123.15 15.83Q123.25 15.68 123.25 15.46L123.25 12.99Q123.25 11.83 122.68 11.34ZM50.96 15.87Q51.12 16 51.37 16L53.35 16Q54.95 16 55.88 15.21Q55.96 15.14 56.04 15.07Q56.18 14.94 56.3 14.79Q56.99 13.9 56.99 12.46Q56.99 11.05 56.31 10.17Q56.18 10.01 56.04 9.87Q55.96 9.8 55.88 9.73Q54.95 8.94 53.35 8.94L51.37 8.94Q51.12 8.94 50.96 9.07Q50.94 9.08 50.92 9.11Q50.9 9.13 50.88 9.15Q50.75 9.3 50.75 9.55L50.75 15.38Q50.75 15.64 50.88 15.79Q50.9 15.81 50.92 15.84Q50.94 15.85 50.96 15.87ZM117.94 15.3Q117.82 15.14 117.53 15.13L117.26 15.1Q116.95 15.08 116.78 14.92Q116.58 14.72 116.58 14.32L116.58 12.04L117.43 12.04Q117.69 12.04 117.84 11.93Q117.88 11.9 117.9 11.86Q117.99 11.75 117.99 11.58Q117.99 11.4 117.9 11.29Q117.87 11.25 117.84 11.22Q117.69 11.1 117.43 11.1L116.58 11.1L116.58 10.18Q116.58 9.99 116.49 9.86Q116.45 9.8 116.41 9.76Q116.37 9.72 116.33 9.7Q116.18 9.6 115.96 9.6Q115.71 9.6 115.54 9.72Q115.52 9.74 115.5 9.76Q115.45 9.8 115.42 9.85Q115.33 9.99 115.33 10.18L115.33 11.1L114.83 11.1Q114.56 11.1 114.41 11.22Q114.38 11.25 114.35 11.28Q114.26 11.4 114.26 11.58Q114.26 11.75 114.35 11.86Q114.38 11.9 114.41 11.93Q114.56 12.04 114.83 12.04L115.33 12.04L115.33 14.23Q115.33 15.06 115.74 15.51Q116.16 15.96 117.01 16.02L117.27 16.04Q117.64 16.07 117.83 15.94Q117.92 15.88 117.97 15.8Q118.02 15.7 118.02 15.58Q118.02 15.4 117.94 15.3ZM55.07 14.35Q54.47 14.95 53.27 14.95L52.05 14.95L52.05 9.99L53.27 9.99Q54.47 9.99 55.08 10.59Q55.71 11.21 55.71 12.46Q55.71 13.73 55.07 14.35ZM59.1 15.77Q59.66 16.08 60.42 16.08Q61.17 16.08 61.73 15.77Q61.99 15.62 62.2 15.42Q62.44 15.19 62.6 14.88Q62.91 14.3 62.91 13.52Q62.91 12.76 62.6 12.18Q62.44 11.88 62.2 11.65Q62 11.44 61.73 11.3Q61.17 10.99 60.42 10.99Q59.66 10.99 59.1 11.3Q58.85 11.43 58.65 11.63Q58.4 11.86 58.23 12.18Q57.92 12.76 57.92 13.52Q57.92 14.3 58.23 14.88Q58.4 15.2 58.65 15.44Q58.85 15.63 59.1 15.77ZM76.45 11.37Q76.02 10.99 75.26 10.99Q74.73 10.99 74.32 11.2Q74.31 11.2 74.3 11.21Q74.11 11.31 73.96 11.45Q73.77 11.61 73.64 11.83L73.64 11.56Q73.64 11.4 73.57 11.28Q73.53 11.22 73.47 11.16Q73.43 11.12 73.38 11.09Q73.24 11 73.04 11Q72.8 11 72.64 11.12Q72.61 11.14 72.59 11.17Q72.53 11.22 72.49 11.28Q72.41 11.41 72.41 11.59L72.41 15.46Q72.41 15.69 72.52 15.83Q72.55 15.87 72.58 15.9Q72.6 15.91 72.62 15.93Q72.78 16.06 73.03 16.06Q73.29 16.06 73.45 15.93Q73.47 15.92 73.49 15.9Q73.53 15.86 73.56 15.82Q73.66 15.67 73.66 15.46L73.66 13.22Q73.66 12.75 73.89 12.44Q73.93 12.37 73.99 12.32Q74.08 12.22 74.19 12.15Q74.47 11.97 74.86 11.97Q75.26 11.97 75.47 12.17Q75.5 12.2 75.53 12.24Q75.74 12.49 75.74 13.07L75.74 15.46Q75.74 15.68 75.85 15.82Q75.88 15.86 75.91 15.9Q75.93 15.92 75.96 15.93Q76.12 16.06 76.37 16.06Q76.63 16.06 76.79 15.93Q76.81 15.91 76.83 15.9Q76.86 15.87 76.89 15.83Q76.99 15.68 76.99 15.46L76.99 12.99Q76.99 11.99 76.56 11.49Q76.51 11.42 76.45 11.37ZM81.72 15.77Q82.28 16.08 83.04 16.08Q83.79 16.08 84.35 15.77Q84.61 15.62 84.82 15.42Q85.06 15.19 85.22 14.88Q85.53 14.3 85.53 13.52Q85.53 12.76 85.22 12.18Q85.06 11.88 84.82 11.65Q84.62 11.44 84.35 11.3Q83.79 10.99 83.04 10.99Q82.28 10.99 81.72 11.3Q81.47 11.43 81.27 11.63Q81.02 11.86 80.85 12.18Q80.54 12.76 80.54 13.52Q80.54 14.3 80.85 14.88Q81.02 15.2 81.27 15.44Q81.47 15.63 81.72 15.77ZM90.19 11.49Q89.69 10.99 88.68 10.99Q88.2 10.99 87.72 11.1Q87.24 11.21 86.88 11.4Q86.68 11.51 86.6 11.63Q86.59 11.65 86.58 11.66Q86.52 11.78 86.52 11.93Q86.52 12.11 86.6 12.23Q86.61 12.25 86.63 12.26Q86.68 12.32 86.74 12.35Q86.82 12.39 86.93 12.39Q87.05 12.39 87.3 12.26Q87.71 12.11 88.01 12.02Q88.31 11.93 88.61 11.93Q89.07 11.93 89.28 12.16Q89.49 12.38 89.49 12.87L89.49 13.1L89.24 13.1Q88.16 13.1 87.54 13.25Q86.92 13.39 86.64 13.7Q86.63 13.71 86.62 13.72Q86.36 14.03 86.36 14.54Q86.36 14.79 86.44 15.01Q86.5 15.18 86.59 15.33Q86.65 15.42 86.72 15.49Q86.93 15.73 87.23 15.88Q87.27 15.9 87.31 15.91Q87.68 16.08 88.11 16.08Q88.55 16.08 88.89 15.89Q88.93 15.88 88.96 15.86Q89.15 15.74 89.28 15.59Q89.41 15.44 89.49 15.25L89.49 15.47Q89.49 15.64 89.57 15.77Q89.61 15.83 89.66 15.89Q89.71 15.93 89.76 15.96Q89.9 16.04 90.08 16.04Q90.33 16.04 90.49 15.92Q90.51 15.91 90.52 15.89Q90.56 15.86 90.58 15.82Q90.69 15.68 90.69 15.47L90.69 13.02Q90.69 12 90.19 11.49ZM101.59 15.77Q102.15 16.08 102.91 16.08Q103.66 16.08 104.22 15.77Q104.48 15.62 104.69 15.42Q104.93 15.19 105.09 14.88Q105.4 14.3 105.4 13.52Q105.4 12.76 105.09 12.18Q104.93 11.88 104.7 11.65Q104.49 11.44 104.22 11.3Q103.66 10.99 102.91 10.99Q102.15 10.99 101.59 11.3Q101.34 11.43 101.14 11.63Q100.89 11.86 100.72 12.18Q100.41 12.76 100.41 13.52Q100.41 14.3 100.72 14.88Q100.89 15.2 101.14 15.44Q101.34 15.63 101.59 15.77ZM110.46 11.37Q110.03 10.99 109.27 10.99Q108.74 10.99 108.33 11.2Q108.32 11.2 108.31 11.21Q108.12 11.31 107.97 11.45Q107.78 11.61 107.65 11.83L107.65 11.56Q107.65 11.4 107.58 11.28Q107.54 11.22 107.48 11.16Q107.44 11.12 107.39 11.09Q107.25 11 107.05 11Q106.81 11 106.65 11.12Q106.62 11.14 106.6 11.17Q106.54 11.22 106.5 11.28Q106.42 11.41 106.42 11.59L106.42 15.46Q106.42 15.69 106.53 15.83Q106.56 15.87 106.59 15.9Q106.61 15.91 106.63 15.93Q106.79 16.06 107.05 16.06Q107.3 16.06 107.46 15.93Q107.48 15.92 107.5 15.9Q107.54 15.86 107.57 15.82Q107.67 15.67 107.67 15.46L107.67 13.22Q107.67 12.75 107.9 12.44Q107.94 12.37 108 12.32Q108.09 12.22 108.2 12.15Q108.48 11.97 108.87 11.97Q109.27 11.97 109.48 12.17Q109.51 12.2 109.54 12.24Q109.75 12.49 109.75 13.07L109.75 15.46Q109.75 15.68 109.86 15.82Q109.89 15.86 109.92 15.9Q109.94 15.92 109.97 15.93Q110.13 16.06 110.38 16.06Q110.64 16.06 110.8 15.93Q110.82 15.91 110.84 15.9Q110.87 15.87 110.9 15.83Q111 15.68 111 15.46L111 12.99Q111 11.99 110.58 11.49Q110.52 11.42 110.46 11.37ZM128.55 14.69Q128.48 14.65 128.39 14.65Q128.25 14.65 127.96 14.82Q127.65 14.96 127.4 15.04Q127.15 15.12 126.83 15.12Q126.23 15.12 125.9 14.81Q125.89 14.8 125.88 14.79Q125.55 14.46 125.48 13.78L128.44 13.78Q128.6 13.78 128.69 13.69Q128.81 13.59 128.81 13.35Q128.81 12.63 128.54 12.1Q128.37 11.75 128.1 11.51Q127.96 11.38 127.78 11.28Q127.3 10.99 126.63 10.99Q126.09 10.99 125.63 11.19Q125.51 11.24 125.4 11.31Q125.19 11.43 125.01 11.59Q124.74 11.85 124.55 12.21Q124.26 12.78 124.26 13.53Q124.26 14.5 124.72 15.13Q124.82 15.27 124.94 15.4Q125.07 15.52 125.2 15.62Q125.84 16.08 126.81 16.08Q127.21 16.08 127.64 15.96Q128.06 15.85 128.4 15.66Q128.7 15.49 128.76 15.26Q128.78 15.2 128.78 15.14Q128.78 14.92 128.67 14.79Q128.62 14.72 128.55 14.69ZM70.65 11.12Q70.53 11.21 70.47 11.38L69.29 14.43L68.08 11.4Q68 11.23 67.88 11.13Q67.86 11.12 67.84 11.11Q67.78 11.07 67.71 11.05Q67.62 11.01 67.51 11.01Q67.43 11.01 67.35 11.04Q67.26 11.06 67.18 11.11Q67.17 11.12 67.16 11.13Q67.03 11.22 66.96 11.4L65.74 14.42L64.56 11.37Q64.5 11.2 64.38 11.12Q64.37 11.1 64.35 11.1Q64.3 11.06 64.24 11.04Q64.15 11 64.04 11Q63.97 11 63.9 11.02Q63.74 11.06 63.61 11.17Q63.47 11.28 63.43 11.42Q63.41 11.49 63.41 11.56Q63.41 11.65 63.45 11.79L65.09 15.66Q65.15 15.78 65.23 15.86Q65.28 15.91 65.34 15.95Q65.45 16.01 65.56 16.03Q65.63 16.04 65.71 16.04Q65.84 16.04 65.96 16Q66.02 15.98 66.07 15.95Q66.12 15.91 66.17 15.87Q66.26 15.78 66.32 15.66L67.47 12.79L68.65 15.66Q68.71 15.79 68.81 15.88Q68.85 15.92 68.9 15.95Q68.99 16 69.09 16.02Q69.17 16.04 69.25 16.04Q69.39 16.04 69.51 16Q69.57 15.98 69.62 15.95Q69.67 15.91 69.72 15.87Q69.81 15.78 69.87 15.66L71.52 11.79Q71.56 11.69 71.56 11.55Q71.56 11.45 71.53 11.37Q71.48 11.26 71.38 11.17Q71.27 11.08 71.15 11.04Q71.06 11.01 70.96 11.01Q70.9 11.01 70.84 11.03Q70.75 11.05 70.67 11.1Q70.66 11.11 70.65 11.12ZM126.03 12.03Q126.3 11.86 126.67 11.86Q127.04 11.86 127.29 12.04Q127.37 12.1 127.44 12.18Q127.73 12.49 127.75 13.1L125.48 13.1Q125.55 12.5 125.85 12.18Q125.93 12.1 126.03 12.03ZM61.14 14.89Q60.85 15.1 60.41 15.1Q59.98 15.1 59.69 14.9Q59.58 14.82 59.49 14.71Q59.17 14.31 59.17 13.52Q59.17 12.76 59.49 12.35Q59.59 12.22 59.72 12.14Q60 11.94 60.42 11.94Q60.83 11.94 61.11 12.14Q61.23 12.22 61.33 12.35Q61.66 12.76 61.66 13.52Q61.66 14.31 61.33 14.71Q61.25 14.82 61.14 14.89ZM83.76 14.89Q83.47 15.1 83.03 15.1Q82.6 15.1 82.31 14.9Q82.2 14.82 82.11 14.71Q81.79 14.31 81.79 13.52Q81.79 12.76 82.11 12.35Q82.21 12.22 82.34 12.14Q82.62 11.94 83.04 11.94Q83.45 11.94 83.73 12.14Q83.85 12.22 83.95 12.35Q84.28 12.76 84.28 13.52Q84.28 14.31 83.95 14.71Q83.87 14.82 83.76 14.89ZM103.63 14.89Q103.34 15.1 102.9 15.1Q102.47 15.1 102.18 14.9Q102.07 14.82 101.98 14.71Q101.66 14.31 101.66 13.52Q101.66 12.76 101.98 12.35Q102.08 12.22 102.21 12.14Q102.49 11.94 102.91 11.94Q103.32 11.94 103.6 12.14Q103.72 12.22 103.82 12.35Q104.15 12.76 104.15 13.52Q104.15 14.31 103.82 14.71Q103.74 14.82 103.63 14.89ZM94.87 14.92Q94.59 15.1 94.19 15.1Q93.81 15.1 93.54 14.94Q93.39 14.84 93.27 14.68Q92.94 14.26 92.94 13.5Q92.94 12.76 93.27 12.35Q93.37 12.23 93.49 12.15Q93.78 11.95 94.2 11.95Q94.59 11.95 94.86 12.13Q95 12.22 95.11 12.36Q95.44 12.77 95.44 13.52Q95.44 14.29 95.11 14.7Q95 14.83 94.87 14.92ZM88.92 15.04Q88.68 15.17 88.37 15.17Q88.15 15.17 87.97 15.08Q87.88 15.04 87.81 14.97Q87.71 14.88 87.66 14.78Q87.58 14.63 87.58 14.44Q87.58 14.25 87.68 14.11Q87.71 14.07 87.74 14.04Q87.9 13.89 88.27 13.83Q88.64 13.77 89.32 13.77L89.49 13.77L89.49 13.98Q89.49 14.38 89.32 14.66Q89.26 14.76 89.18 14.84Q89.06 14.96 88.92 15.04Z" fill="#FFFFFF" fill-opacity="1.000000" fill-rule="evenodd"/>
	<path d="M35.04 22.89C35.01 19.35 38.09 17.63 38.23 17.55C36.49 15.13 33.78 14.8 32.83 14.77C30.55 14.55 28.35 16.06 27.19 16.06C26.01 16.06 24.22 14.79 22.3 14.83C19.82 14.87 17.51 16.23 16.24 18.34C13.62 22.64 15.57 28.97 18.08 32.45C19.34 34.16 20.81 36.06 22.73 35.99C24.61 35.92 25.31 34.86 27.58 34.86C29.82 34.86 30.48 35.99 32.44 35.95C34.46 35.92 35.73 34.24 36.94 32.52C38.39 30.56 38.97 28.64 39 28.54C38.95 28.53 35.08 27.13 35.04 22.89L35.04 22.89ZM31.34 12.48C32.35 11.28 33.04 9.65 32.85 8C31.39 8.06 29.56 8.96 28.51 10.13C27.57 11.16 26.74 12.86 26.96 14.45C28.6 14.57 30.29 13.66 31.34 12.48L31.34 12.48Z" fill="#FFFFFF" fill-opacity="1.000000" fill-rule="nonzero"/>
</svg>
